<?xml version="1.0" encoding="UTF-8"?><svg id="a" xmlns="http://www.w3.org/2000/svg" width="254.09" height="254.09" viewBox="0 0 254.09 254.09"><circle cx="127.19" cy="50.62" r="1.91" fill="#f3b126" stroke-width="0"/><circle cx="108.15" cy="53.02" r="1.91" fill="#f3b126" stroke-width="0"/><path d="m88.43,60.09c0-1.03.84-1.87,1.87-1.87s1.87.84,1.87,1.87-.84,1.87-1.87,1.87c-1.03,0-1.87-.84-1.87-1.87Z" fill="#f3b126" stroke-width="0"/><path d="m72.9,71.37c0-1.03.84-1.87,1.87-1.87s1.87.84,1.87,1.87-.84,1.87-1.87,1.87-1.87-.84-1.87-1.87Z" fill="#f3b126" stroke-width="0"/><path d="m60.67,86.16c0-1.03.84-1.87,1.87-1.87s1.87.84,1.87,1.87-.84,1.87-1.87,1.87-1.87-.84-1.87-1.87Z" fill="#f3b126" stroke-width="0"/><path d="m52.5,103.53c0-1.03.84-1.87,1.87-1.87,1.03,0,1.87.84,1.87,1.87s-.84,1.87-1.87,1.87c-1.03,0-1.87-.84-1.87-1.87Z" fill="#f3b126" stroke-width="0"/><circle cx="50.77" cy="122.38" r="1.91" fill="#f3b126" stroke-width="0"/><circle cx="51.97" cy="141.54" r="1.91" fill="#f3b126" stroke-width="0"/><circle cx="57.9" cy="159.8" r="1.91" fill="#f3b126" stroke-width="0"/><path d="m66.24,176c0-1.08.87-1.95,1.95-1.95s1.95.87,1.95,1.95-.87,1.95-1.95,1.95-1.95-.87-1.95-1.95Z" fill="#f3b126" stroke-width="0"/><path d="m80.23,189.14c0-1.08.87-1.95,1.95-1.95,1.08,0,1.95.87,1.95,1.95s-.87,1.95-1.95,1.95-1.95-.87-1.95-1.95Z" fill="#f3b126" stroke-width="0"/><path d="m97.01,198.39c0-1.1.89-2,2-2,1.1,0,2,.89,2,2s-.89,2-2,2-2-.89-2-2Z" fill="#f3b126" stroke-width="0"/><circle cx="117.6" cy="203.17" r="2" fill="#f3b126" stroke-width="0"/><circle cx="136.79" cy="203.17" r="2.04" fill="#f3b126" stroke-width="0"/><path d="m153.34,198.39c0-1.13.91-2.04,2.04-2.04,1.13,0,2.04.91,2.04,2.04s-.91,2.04-2.04,2.04-2.04-.91-2.04-2.04Z" fill="#f3b126" stroke-width="0"/><path d="m170.16,189.14c0-1.13.91-2.04,2.04-2.04s2.04.91,2.04,2.04-.91,2.04-2.04,2.04c-1.13,0-2.04-.91-2.04-2.04Z" fill="#f3b126" stroke-width="0"/><path d="m184.16,176c0-1.13.91-2.04,2.04-2.04,1.13,0,2.04.91,2.04,2.04s-.91,2.04-2.04,2.04c-1.13,0-2.04-.91-2.04-2.04Z" fill="#f3b126" stroke-width="0"/><circle cx="196.48" cy="159.8" r="2.04" fill="#f3b126" stroke-width="0"/><circle cx="202.41" cy="141.54" r="2.04" fill="#f3b126" stroke-width="0"/><circle cx="203.62" cy="122.38" r="2" fill="#f3b126" stroke-width="0"/><path d="m198.02,103.53c0-1.1.89-2,2-2s2,.89,2,2-.89,2-2,2-2-.89-2-2Z" fill="#f3b126" stroke-width="0"/><path d="m189.85,86.16c0-1.1.89-2,2-2s2,.89,2,2-.89,2-2,2c-1.1,0-2-.89-2-2Z" fill="#f3b126" stroke-width="0"/><path d="m177.66,71.37c0-1.08.87-1.95,1.95-1.95,1.08,0,1.95.87,1.95,1.95s-.87,1.95-1.95,1.95c-1.08,0-1.95-.87-1.95-1.95Z" fill="#f3b126" stroke-width="0"/><path d="m162.13,60.09c0-1.08.87-1.95,1.95-1.95s1.95.87,1.95,1.95-.87,1.95-1.95,1.95-1.95-.87-1.95-1.95Z" fill="#f3b126" stroke-width="0"/><circle cx="146.24" cy="53.02" r="1.91" fill="#f3b126" stroke-width="0"/><path d="m123.97,35.3c0-1.78,1.45-3.23,3.23-3.23,1.78,0,3.23,1.44,3.23,3.23s-1.44,3.23-3.23,3.23-3.23-1.44-3.23-3.23Z" fill="#f3b126" stroke-width="0"/><path d="m104.86,37.31c0-1.78,1.44-3.23,3.23-3.23,1.78,0,3.23,1.44,3.23,3.23s-1.45,3.23-3.23,3.23c-1.78,0-3.23-1.44-3.23-3.23Z" fill="#f3b126" stroke-width="0"/><circle cx="89.82" cy="43.25" r="3.23" fill="#f3b126" stroke-width="0"/><path d="m69.95,52.85c0-1.78,1.44-3.23,3.23-3.23s3.23,1.44,3.23,3.23-1.44,3.23-3.23,3.23c-1.78,0-3.23-1.44-3.23-3.23Z" fill="#f3b126" stroke-width="0"/><path d="m55.68,65.71c0-1.78,1.45-3.23,3.23-3.23s3.23,1.44,3.23,3.23-1.45,3.23-3.23,3.23-3.23-1.44-3.23-3.23Z" fill="#f3b126" stroke-width="0"/><path d="m44.39,81.25c0-1.78,1.45-3.23,3.23-3.23s3.23,1.44,3.23,3.23-1.45,3.23-3.23,3.23-3.23-1.44-3.23-3.23Z" fill="#f3b126" stroke-width="0"/><path d="m36.57,98.8c0-1.78,1.44-3.23,3.23-3.23,1.78,0,3.23,1.44,3.23,3.23s-1.45,3.23-3.23,3.23-3.23-1.44-3.23-3.23Z" fill="#f3b126" stroke-width="0"/><path d="m32.58,117.59c0-1.78,1.44-3.23,3.23-3.23s3.23,1.45,3.23,3.23-1.44,3.23-3.23,3.23-3.23-1.44-3.23-3.23Z" fill="#f3b126" stroke-width="0"/><circle cx="35.81" cy="136.8" r="3.27" fill="#f3b126" stroke-width="0"/><path d="m36.53,155.59c0-1.81,1.46-3.27,3.27-3.27,1.81,0,3.27,1.46,3.27,3.27s-1.46,3.27-3.27,3.27c-1.81,0-3.27-1.46-3.27-3.27Z" fill="#f3b126" stroke-width="0"/><path d="m44.34,173.14c0-1.81,1.46-3.27,3.27-3.27,1.81,0,3.27,1.46,3.27,3.27s-1.46,3.27-3.27,3.27c-1.81,0-3.27-1.46-3.27-3.27Z" fill="#f3b126" stroke-width="0"/><path d="m55.59,188.68c0-1.83,1.48-3.31,3.31-3.31,1.83,0,3.31,1.48,3.31,3.31s-1.48,3.31-3.31,3.31c-1.83,0-3.31-1.48-3.31-3.31Z" fill="#f3b126" stroke-width="0"/><path d="m69.87,201.53c0-1.83,1.48-3.31,3.31-3.31s3.31,1.48,3.31,3.31-1.48,3.31-3.31,3.31-3.31-1.48-3.31-3.31Z" fill="#f3b126" stroke-width="0"/><path d="m86.5,211.14c0-1.83,1.48-3.31,3.31-3.31,1.83,0,3.31,1.48,3.31,3.31s-1.48,3.31-3.31,3.31c-1.83,0-3.31-1.48-3.31-3.31Z" fill="#f3b126" stroke-width="0"/><path d="m104.73,217.08c0-1.85,1.5-3.36,3.36-3.36,1.85,0,3.36,1.5,3.36,3.36s-1.5,3.35-3.36,3.35c-1.85,0-3.36-1.5-3.36-3.35Z" fill="#f3b126" stroke-width="0"/><path d="m123.84,219.08c0-1.85,1.5-3.35,3.36-3.35,1.85,0,3.36,1.5,3.36,3.35s-1.5,3.36-3.36,3.36c-1.85,0-3.36-1.5-3.36-3.36Z" fill="#f3b126" stroke-width="0"/><path d="m142.94,217.08c0-1.85,1.5-3.36,3.36-3.36,1.85,0,3.36,1.5,3.36,3.36s-1.5,3.35-3.36,3.35-3.36-1.5-3.36-3.35Z" fill="#f3b126" stroke-width="0"/><path d="m161.17,211.14c0-1.88,1.52-3.4,3.4-3.4,1.88,0,3.4,1.52,3.4,3.4s-1.52,3.4-3.4,3.4-3.4-1.52-3.4-3.4Z" fill="#f3b126" stroke-width="0"/><path d="m177.81,201.53c0-1.88,1.52-3.4,3.4-3.4,1.88,0,3.4,1.52,3.4,3.4s-1.52,3.4-3.4,3.4c-1.88,0-3.4-1.52-3.4-3.4Z" fill="#f3b126" stroke-width="0"/><path d="m192.08,188.68c0-1.88,1.52-3.4,3.4-3.4s3.4,1.52,3.4,3.4-1.52,3.4-3.4,3.4-3.4-1.52-3.4-3.4Z" fill="#f3b126" stroke-width="0"/><path d="m203.38,173.14c0-1.88,1.52-3.4,3.4-3.4s3.4,1.52,3.4,3.4-1.52,3.4-3.4,3.4c-1.88,0-3.4-1.52-3.4-3.4Z" fill="#f3b126" stroke-width="0"/><path d="m211.19,155.59c0-1.88,1.52-3.4,3.4-3.4,1.88,0,3.4,1.52,3.4,3.4s-1.52,3.4-3.4,3.4c-1.88,0-3.4-1.52-3.4-3.4Z" fill="#f3b126" stroke-width="0"/><circle cx="218.58" cy="136.8" r="3.36" fill="#f3b126" stroke-width="0"/><circle cx="218.58" cy="117.59" r="3.36" fill="#f3b126" stroke-width="0"/><path d="m211.23,98.8c0-1.85,1.5-3.36,3.35-3.36,1.85,0,3.36,1.5,3.36,3.36s-1.5,3.36-3.36,3.36-3.35-1.5-3.35-3.36Z" fill="#f3b126" stroke-width="0"/><path d="m203.46,81.25c0-1.83,1.48-3.31,3.31-3.31,1.83,0,3.31,1.48,3.31,3.31s-1.48,3.31-3.31,3.31c-1.83,0-3.31-1.48-3.31-3.31Z" fill="#f3b126" stroke-width="0"/><path d="m192.17,65.71c0-1.83,1.48-3.31,3.31-3.31s3.31,1.48,3.31,3.31-1.48,3.31-3.31,3.31-3.31-1.48-3.31-3.31Z" fill="#f3b126" stroke-width="0"/><path d="m177.89,52.85c0-1.83,1.48-3.31,3.31-3.31s3.31,1.48,3.31,3.31-1.48,3.31-3.31,3.31-3.31-1.48-3.31-3.31Z" fill="#f3b126" stroke-width="0"/><circle cx="164.57" cy="43.25" r="3.27" fill="#f3b126" stroke-width="0"/><circle cx="146.3" cy="37.31" r="3.27" fill="#f3b126" stroke-width="0"/><path d="m122.61,19.99c0-2.53,2.05-4.59,4.59-4.59,2.53,0,4.59,2.05,4.59,4.59s-2.05,4.59-4.59,4.59-4.59-2.05-4.59-4.59Z" fill="#f3b126" stroke-width="0"/><circle cx="108.05" cy="21.71" r="4.59" fill="#f3b126" stroke-width="0"/><circle cx="89.52" cy="26.82" r="4.59" fill="#f3b126" stroke-width="0"/><path d="m67.62,35.16c0-2.53,2.05-4.59,4.59-4.59,2.53,0,4.59,2.05,4.59,4.59s-2.05,4.59-4.59,4.59-4.59-2.05-4.59-4.59Z" fill="#f3b126" stroke-width="0"/><path d="m52.07,46.46c0-2.53,2.05-4.59,4.59-4.59,2.53,0,4.59,2.05,4.59,4.59s-2.05,4.59-4.59,4.59-4.59-2.05-4.59-4.59Z" fill="#f3b126" stroke-width="0"/><circle cx="43.38" cy="60.35" r="4.59" fill="#f3b126" stroke-width="0"/><path d="m28.2,76.39c0-2.53,2.05-4.59,4.59-4.59,2.53,0,4.59,2.05,4.59,4.59s-2.05,4.59-4.59,4.59-4.59-2.05-4.59-4.59Z" fill="#f3b126" stroke-width="0"/><path d="m20.65,94.06c0-2.53,2.05-4.59,4.59-4.59,2.53,0,4.59,2.05,4.59,4.59s-2.05,4.59-4.59,4.59c-2.53,0-4.59-2.05-4.59-4.59Z" fill="#f3b126" stroke-width="0"/><path d="m16.37,112.8c0-2.53,2.05-4.59,4.59-4.59,2.53,0,4.59,2.05,4.59,4.59s-2.05,4.59-4.59,4.59-4.59-2.05-4.59-4.59Z" fill="#f3b126" stroke-width="0"/><path d="m15.51,132c0-2.53,2.05-4.59,4.59-4.59,2.53,0,4.59,2.05,4.59,4.59s-2.05,4.59-4.59,4.59c-2.53,0-4.59-2.05-4.59-4.59Z" fill="#f3b126" stroke-width="0"/><path d="m18.05,151.05c0-2.56,2.07-4.63,4.63-4.63,2.56,0,4.63,2.07,4.63,4.63s-2.07,4.63-4.63,4.63c-2.56,0-4.63-2.07-4.63-4.63Z" fill="#f3b126" stroke-width="0"/><path d="m23.98,169.33c0-2.56,2.07-4.63,4.63-4.63,2.56,0,4.63,2.07,4.63,4.63s-2.07,4.63-4.63,4.63-4.63-2.07-4.63-4.63Z" fill="#f3b126" stroke-width="0"/><path d="m33.09,186.25c0-2.56,2.07-4.63,4.63-4.63,2.56,0,4.63,2.07,4.63,4.63s-2.07,4.63-4.63,4.63c-2.56,0-4.63-2.07-4.63-4.63Z" fill="#f3b126" stroke-width="0"/><path d="m45.03,201.28c0-2.58,2.09-4.67,4.67-4.67,2.58,0,4.67,2.09,4.67,4.67s-2.09,4.67-4.67,4.67c-2.58,0-4.67-2.09-4.67-4.67Z" fill="#f3b126" stroke-width="0"/><path d="m59.51,213.92c0-2.58,2.09-4.67,4.67-4.67,2.58,0,4.67,2.09,4.67,4.67s-2.09,4.67-4.67,4.67c-2.58,0-4.67-2.09-4.67-4.67Z" fill="#f3b126" stroke-width="0"/><path d="m76.01,223.78c0-2.58,2.09-4.67,4.67-4.67,2.58,0,4.67,2.09,4.67,4.67s-2.09,4.67-4.67,4.67c-2.58,0-4.67-2.09-4.67-4.67Z" fill="#f3b126" stroke-width="0"/><circle cx="98.67" cy="230.54" r="4.71" fill="#f3b126" stroke-width="0"/><circle cx="117.58" cy="233.97" r="4.71" fill="#f3b126" stroke-width="0"/><circle cx="136.8" cy="233.97" r="4.71" fill="#f3b126" stroke-width="0"/><circle cx="155.71" cy="230.54" r="4.71" fill="#f3b126" stroke-width="0"/><circle cx="173.71" cy="223.78" r="4.71" fill="#f3b126" stroke-width="0"/><path d="m185.45,213.92c0-2.63,2.13-4.76,4.76-4.76,2.63,0,4.76,2.13,4.76,4.76s-2.13,4.76-4.76,4.76c-2.63,0-4.76-2.13-4.76-4.76Z" fill="#f3b126" stroke-width="0"/><path d="m199.92,201.28c0-2.63,2.13-4.76,4.76-4.76,2.63,0,4.76,2.13,4.76,4.76s-2.13,4.76-4.76,4.76c-2.63,0-4.76-2.13-4.76-4.76Z" fill="#f3b126" stroke-width="0"/><circle cx="216.66" cy="186.25" r="4.76" fill="#f3b126" stroke-width="0"/><path d="m221.02,169.33c0-2.63,2.13-4.76,4.76-4.76,2.63,0,4.76,2.13,4.76,4.76,0,2.63-2.13,4.76-4.76,4.76-2.63,0-4.76-2.13-4.76-4.76Z" fill="#f3b126" stroke-width="0"/><circle cx="231.71" cy="151.05" r="4.71" fill="#f3b126" stroke-width="0"/><circle cx="234.29" cy="132" r="4.71" fill="#f3b126" stroke-width="0"/><circle cx="233.43" cy="112.8" r="4.71" fill="#f3b126" stroke-width="0"/><circle cx="229.15" cy="94.06" r="4.71" fill="#f3b126" stroke-width="0"/><path d="m216.93,76.39c0-2.58,2.09-4.67,4.67-4.67,2.58,0,4.67,2.09,4.67,4.67,0,2.58-2.09,4.67-4.67,4.67-2.58,0-4.67-2.09-4.67-4.67Z" fill="#f3b126" stroke-width="0"/><path d="m206.34,60.35c0-2.58,2.09-4.67,4.67-4.67,2.58,0,4.67,2.09,4.67,4.67s-2.09,4.67-4.67,4.67-4.67-2.09-4.67-4.67Z" fill="#f3b126" stroke-width="0"/><path d="m193.1,46.46c0-2.56,2.07-4.63,4.63-4.63,2.56,0,4.63,2.07,4.63,4.63s-2.07,4.63-4.63,4.63c-2.56,0-4.63-2.07-4.63-4.63Z" fill="#f3b126" stroke-width="0"/><circle cx="182.18" cy="35.16" r="4.63" fill="#f3b126" stroke-width="0"/><path d="m160.23,26.82c0-2.56,2.07-4.63,4.63-4.63,2.56,0,4.63,2.07,4.63,4.63s-2.07,4.63-4.63,4.63c-2.56,0-4.63-2.07-4.63-4.63Z" fill="#f3b126" stroke-width="0"/><circle cx="146.34" cy="21.71" r="4.63" fill="#f3b126" stroke-width="0"/><path d="m122.52,4.67c0-2.58,2.09-4.67,4.67-4.67,2.58,0,4.67,2.09,4.67,4.67s-2.09,4.67-4.67,4.67c-2.58,0-4.67-2.09-4.67-4.67Z" fill="#f3b126" stroke-width="0"/><path d="m103.35,6.18c0-2.58,2.09-4.67,4.67-4.67,2.58,0,4.67,2.09,4.67,4.67s-2.09,4.67-4.67,4.67c-2.58,0-4.67-2.09-4.67-4.67Z" fill="#f3b126" stroke-width="0"/><path d="m84.66,10.67c0-2.58,2.09-4.67,4.67-4.67s4.67,2.09,4.67,4.67-2.09,4.67-4.67,4.67c-2.58,0-4.67-2.09-4.67-4.67Z" fill="#f3b126" stroke-width="0"/><path d="m66.9,18.03c0-2.58,2.09-4.67,4.67-4.67,2.58,0,4.67,2.09,4.67,4.67s-2.09,4.67-4.67,4.67c-2.58,0-4.67-2.09-4.67-4.67Z" fill="#f3b126" stroke-width="0"/><circle cx="55.18" cy="28.07" r="4.71" fill="#f3b126" stroke-width="0"/><circle cx="40.56" cy="40.56" r="4.71" fill="#f3b126" stroke-width="0"/><path d="m23.36,55.18c0-2.6,2.11-4.71,4.71-4.71s4.71,2.11,4.71,4.71-2.11,4.71-4.71,4.71c-2.6,0-4.71-2.11-4.71-4.71Z" fill="#f3b126" stroke-width="0"/><circle cx="18.03" cy="71.57" r="4.67" fill="#f3b126" stroke-width="0"/><path d="m6,89.33c0-2.58,2.09-4.67,4.67-4.67s4.67,2.09,4.67,4.67-2.09,4.67-4.67,4.67c-2.58,0-4.67-2.09-4.67-4.67Z" fill="#f3b126" stroke-width="0"/><path d="m1.51,108.03c0-2.58,2.09-4.67,4.67-4.67s4.67,2.09,4.67,4.67-2.09,4.67-4.67,4.67c-2.58,0-4.67-2.09-4.67-4.67Z" fill="#f3b126" stroke-width="0"/><path d="m0,127.19c0-2.58,2.09-4.67,4.67-4.67,2.58,0,4.67,2.09,4.67,4.67s-2.09,4.67-4.67,4.67c-2.58,0-4.67-2.09-4.67-4.67Z" fill="#f3b126" stroke-width="0"/><circle cx="6.18" cy="146.36" r="4.63" fill="#f3b126" stroke-width="0"/><path d="m6.04,165.05c0-2.56,2.07-4.63,4.63-4.63,2.56,0,4.63,2.07,4.63,4.63s-2.07,4.63-4.63,4.63c-2.56,0-4.63-2.07-4.63-4.63Z" fill="#f3b126" stroke-width="0"/><circle cx="18.03" cy="182.82" r="4.59" fill="#f3b126" stroke-width="0"/><path d="m23.53,199.21c0-2.51,2.03-4.54,4.54-4.54,2.51,0,4.54,2.03,4.54,4.54s-2.03,4.54-4.54,4.54c-2.51,0-4.54-2.03-4.54-4.54Z" fill="#f3b126" stroke-width="0"/><path d="m36.01,213.83c0-2.51,2.03-4.54,4.54-4.54,2.51,0,4.54,2.03,4.54,4.54s-2.03,4.54-4.54,4.54c-2.51,0-4.54-2.03-4.54-4.54Z" fill="#f3b126" stroke-width="0"/><path d="m50.67,226.32c0-2.49,2.02-4.5,4.5-4.5,2.49,0,4.5,2.02,4.5,4.5s-2.02,4.5-4.5,4.5c-2.49,0-4.5-2.02-4.5-4.5Z" fill="#f3b126" stroke-width="0"/><path d="m67.11,236.36c0-2.46,2-4.46,4.46-4.46,2.46,0,4.46,2,4.46,4.46s-2,4.46-4.46,4.46-4.46-2-4.46-4.46Z" fill="#f3b126" stroke-width="0"/><path d="m84.87,243.72c0-2.46,2-4.46,4.46-4.46s4.46,2,4.46,4.46-2,4.46-4.46,4.46c-2.46,0-4.46-2-4.46-4.46Z" fill="#f3b126" stroke-width="0"/><path d="m103.61,248.21c0-2.44,1.98-4.42,4.42-4.42,2.44,0,4.42,1.98,4.42,4.42s-1.98,4.42-4.42,4.42-4.42-1.98-4.42-4.42Z" fill="#f3b126" stroke-width="0"/><circle cx="127.19" cy="249.71" r="4.37" fill="#f3b126" stroke-width="0"/><circle cx="146.36" cy="248.21" r="4.37" fill="#f3b126" stroke-width="0"/><path d="m160.72,243.72c0-2.39,1.94-4.33,4.33-4.33,2.39,0,4.33,1.94,4.33,4.33s-1.94,4.33-4.33,4.33-4.33-1.94-4.33-4.33Z" fill="#f3b126" stroke-width="0"/><path d="m178.48,236.36c0-2.39,1.94-4.33,4.33-4.33,2.39,0,4.33,1.94,4.33,4.33s-1.94,4.33-4.33,4.33c-2.39,0-4.33-1.94-4.33-4.33Z" fill="#f3b126" stroke-width="0"/><path d="m194.88,226.32c0-2.39,1.94-4.33,4.33-4.33s4.33,1.94,4.33,4.33-1.94,4.33-4.33,4.33c-2.39,0-4.33-1.94-4.33-4.33Z" fill="#f3b126" stroke-width="0"/><path d="m209.5,213.83c0-2.39,1.94-4.33,4.33-4.33s4.33,1.94,4.33,4.33-1.94,4.33-4.33,4.33-4.33-1.94-4.33-4.33Z" fill="#f3b126" stroke-width="0"/><path d="m221.98,199.21c0-2.39,1.94-4.33,4.33-4.33s4.33,1.94,4.33,4.33-1.94,4.33-4.33,4.33-4.33-1.94-4.33-4.33Z" fill="#f3b126" stroke-width="0"/><path d="m232.03,182.82c0-2.39,1.94-4.33,4.33-4.33s4.33,1.94,4.33,4.33-1.94,4.33-4.33,4.33c-2.39,0-4.33-1.94-4.33-4.33Z" fill="#f3b126" stroke-width="0"/><path d="m239.39,165.05c0-2.39,1.94-4.33,4.33-4.33,2.39,0,4.33,1.94,4.33,4.33s-1.94,4.33-4.33,4.33c-2.39,0-4.33-1.94-4.33-4.33Z" fill="#f3b126" stroke-width="0"/><path d="m243.83,146.36c0-2.42,1.96-4.37,4.37-4.37s4.37,1.96,4.37,4.37-1.96,4.37-4.37,4.37-4.37-1.96-4.37-4.37Z" fill="#f3b126" stroke-width="0"/><circle cx="249.71" cy="127.19" r="4.37" fill="#f3b126" stroke-width="0"/><path d="m243.79,108.03c0-2.44,1.98-4.42,4.42-4.42s4.42,1.98,4.42,4.42-1.98,4.42-4.42,4.42-4.42-1.98-4.42-4.42Z" fill="#f3b126" stroke-width="0"/><path d="m239.26,89.33c0-2.46,2-4.46,4.46-4.46,2.46,0,4.46,2,4.46,4.46s-2,4.46-4.46,4.46-4.46-2-4.46-4.46Z" fill="#f3b126" stroke-width="0"/><path d="m231.9,71.57c0-2.46,2-4.46,4.46-4.46,2.46,0,4.46,2,4.46,4.46s-2,4.46-4.46,4.46c-2.46,0-4.46-2-4.46-4.46Z" fill="#f3b126" stroke-width="0"/><path d="m221.81,55.18c0-2.49,2.02-4.5,4.5-4.5s4.5,2.02,4.5,4.5-2.02,4.5-4.5,4.5c-2.49,0-4.5-2.02-4.5-4.5Z" fill="#f3b126" stroke-width="0"/><path d="m209.28,40.56c0-2.51,2.03-4.54,4.54-4.54s4.54,2.03,4.54,4.54-2.03,4.54-4.54,4.54-4.54-2.03-4.54-4.54Z" fill="#f3b126" stroke-width="0"/><path d="m194.67,28.07c0-2.51,2.03-4.54,4.54-4.54,2.51,0,4.54,2.03,4.54,4.54s-2.03,4.54-4.54,4.54c-2.51,0-4.54-2.03-4.54-4.54Z" fill="#f3b126" stroke-width="0"/><path d="m178.23,18.03c0-2.53,2.05-4.59,4.59-4.59,2.53,0,4.59,2.05,4.59,4.59s-2.05,4.59-4.59,4.59c-2.53,0-4.59-2.05-4.59-4.59Z" fill="#f3b126" stroke-width="0"/><path d="m160.43,10.67c0-2.56,2.07-4.63,4.63-4.63,2.56,0,4.63,2.07,4.63,4.63s-2.07,4.63-4.63,4.63c-2.56,0-4.63-2.07-4.63-4.63Z" fill="#f3b126" stroke-width="0"/><path d="m141.73,6.18c0-2.56,2.07-4.63,4.63-4.63,2.56,0,4.63,2.07,4.63,4.63s-2.07,4.63-4.63,4.63c-2.56,0-4.63-2.07-4.63-4.63Z" fill="#f3b126" stroke-width="0"/></svg>